<svg width="123" height="42" viewBox="0 0 123 42" fill="none" xmlns="http://www.w3.org/2000/svg">
<path d="M113.205 1.8066e-06H9.80048C9.42356 1.8066e-06 9.05116 1.80677e-06 8.67523 0.00210181C8.36055 0.00420181 8.04837 0.0103023 7.73067 0.0154368C7.04046 0.0237337 6.35188 0.0857619 5.6709 0.200982C4.99088 0.318711 4.33217 0.540663 3.71703 0.859332C3.10265 1.1807 2.54127 1.59828 2.05326 2.09693C1.56268 2.59417 1.15375 3.16892 0.842191 3.79907C0.529768 4.42797 0.313133 5.10189 0.199768 5.79756C0.0853251 6.49235 0.0237423 7.19515 0.0155723 7.89966C0.00603364 8.22159 0.00502632 8.54459 0 8.86656V33.1365C0.00502632 33.4626 0.00603364 33.7784 0.0155723 34.1045C0.0237448 34.809 0.0853276 35.5118 0.199768 36.2065C0.31282 36.9026 0.529468 37.5769 0.842191 38.206C1.15361 38.8342 1.5626 39.4066 2.05326 39.9011C2.53942 40.4019 3.10116 40.8198 3.71703 41.1387C4.33216 41.4582 4.99081 41.6815 5.6709 41.801C6.35199 41.9153 7.04051 41.9774 7.73067 41.9867C8.04837 41.9938 8.36055 41.9979 8.67523 41.9979C9.05115 42 9.42358 42 9.80048 42H113.205C113.574 42 113.95 42 114.319 41.9979C114.632 41.9979 114.954 41.9938 115.267 41.9867C115.956 41.9779 116.643 41.9158 117.323 41.801C118.005 41.6806 118.666 41.4574 119.284 41.1387C119.899 40.8196 120.461 40.4017 120.946 39.9011C121.436 39.4046 121.846 38.8326 122.161 38.206C122.471 37.5764 122.686 36.9022 122.797 36.2065C122.912 35.5117 122.976 34.8091 122.988 34.1045C122.992 33.7784 122.992 33.4626 122.992 33.1365C123 32.7551 123 32.3757 123 31.988V10.0129C123 9.62842 123 9.24697 122.992 8.86656C122.992 8.54459 122.992 8.22159 122.988 7.89961C122.976 7.19505 122.912 6.4924 122.797 5.79751C122.685 5.10225 122.471 4.42838 122.161 3.79903C121.526 2.53596 120.52 1.50783 119.284 0.859238C118.666 0.541348 118.005 0.319454 117.323 0.200888C116.643 0.0851597 115.956 0.02311 115.267 0.0152898C114.954 0.0101658 114.632 0.00401281 114.319 0.00196531C113.95 -0.000134693 113.574 1.8066e-06 113.205 1.8066e-06Z" fill="black"/>
<path d="M8.68016 41.0812C8.36699 41.0812 8.06138 41.0771 7.75066 41.0699C7.10698 41.0614 6.46481 41.0041 5.82941 40.8987C5.23693 40.7945 4.66298 40.6006 4.12649 40.3234C3.59491 40.0485 3.11007 39.6881 2.69054 39.256C2.26494 38.8289 1.91061 38.3336 1.64158 37.7896C1.3696 37.2422 1.18136 36.6553 1.08345 36.0496C0.977703 35.3987 0.920491 34.7406 0.912305 34.0808C0.905788 33.8594 0.897257 33.1221 0.897257 33.1221V8.86648C0.897257 8.86648 0.906343 8.1405 0.912356 7.92721C0.920195 7.26852 0.977074 6.6114 1.0825 5.96154C1.1806 5.35413 1.36898 4.7656 1.64111 4.21633C1.90915 3.67276 2.26151 3.17707 2.68455 2.74848C3.10711 2.31582 3.5935 1.95355 4.12598 1.67489C4.66125 1.39862 5.23411 1.20609 5.82539 1.10375C6.46288 0.997246 7.10728 0.939664 7.75319 0.931488L8.68066 0.918668H114.314L115.253 0.932003C115.893 0.939772 116.531 0.99684 117.163 1.10272C117.76 1.20634 118.339 1.40021 118.88 1.67797C119.947 2.23955 120.815 3.12804 121.363 4.21889C121.63 4.76438 121.816 5.3481 121.913 5.95026C122.02 6.60546 122.079 7.26774 122.091 7.93183C122.094 8.22919 122.094 8.5486 122.094 8.86648C122.103 9.26023 122.103 9.635 122.103 10.0129V31.988C122.103 32.3694 122.103 32.7417 122.094 33.1169C122.094 33.4584 122.094 33.7712 122.09 34.0931C122.078 34.7453 122.02 35.3958 121.915 36.0393C121.819 36.6494 121.632 37.2408 121.36 37.7928C121.089 38.3308 120.737 38.8219 120.316 39.2478C119.896 39.6822 119.41 40.0448 118.877 40.3214C118.338 40.6007 117.76 40.7953 117.163 40.8987C116.528 41.0047 115.885 41.0619 115.242 41.0699C114.941 41.0771 114.625 41.0812 114.319 41.0812L113.205 41.0833L8.68016 41.0812Z" fill="black"/>
<path d="M25.4589 21.3157C25.4699 20.4393 25.6978 19.58 26.1213 18.8177C26.5448 18.0555 27.1502 17.415 27.8811 16.956C27.4168 16.2786 26.8042 15.7211 26.0921 15.3278C25.3799 14.9345 24.5878 14.7163 23.7787 14.6904C22.0526 14.5054 20.3793 15.7455 19.4997 15.7455C18.6031 15.7455 17.2489 14.7088 15.7906 14.7395C14.8474 14.7706 13.9281 15.0508 13.1224 15.5527C12.3166 16.0547 11.6519 16.7613 11.193 17.6037C9.2051 21.1196 10.6879 26.2867 12.5922 29.1286C13.5449 30.5202 14.6584 32.0747 16.1154 32.0196C17.5411 31.9592 18.0736 31.0909 19.7945 31.0909C21.4995 31.0909 21.9991 32.0196 23.4856 31.9845C25.0155 31.9592 25.9794 30.5867 26.8987 29.1819C27.5833 28.1903 28.11 27.0944 28.4595 25.9348C27.5707 25.5508 26.8122 24.908 26.2786 24.0866C25.745 23.2652 25.4599 22.3015 25.4589 21.3157Z" fill="white"/>
<path d="M22.6512 12.8214C23.4854 11.7985 23.8963 10.4837 23.7968 9.15625C22.5224 9.29298 21.3452 9.91517 20.4998 10.8988C20.0865 11.3794 19.7699 11.9384 19.5682 12.5441C19.3665 13.1497 19.2836 13.7899 19.3242 14.4283C19.9617 14.435 20.5923 14.2939 21.1686 14.0155C21.7448 13.7372 22.2518 13.3289 22.6512 12.8214Z" fill="white"/>
<path d="M43.4808 28.4967H38.6155L37.447 32.0209H35.3863L39.9947 18.982H42.1357L46.7441 32.0209H44.6482L43.4808 28.4967ZM39.1194 26.8704H42.9759L41.0748 21.1508H41.0216L39.1194 26.8704Z" fill="white"/>
<path d="M56.6968 27.2682C56.6968 30.2224 55.149 32.1204 52.8131 32.1204C52.2214 32.152 51.633 32.0128 51.1151 31.7186C50.5973 31.4245 50.171 30.9873 49.8851 30.4572H49.8409V35.1658H47.9307V22.5145H49.7797V24.0957H49.8148C50.1139 23.5681 50.5474 23.1332 51.0692 22.8373C51.591 22.5413 52.1815 22.3954 52.778 22.4151C55.1399 22.4151 56.6968 24.3223 56.6968 27.2682ZM54.7334 27.2682C54.7334 25.3436 53.7597 24.0783 52.2741 24.0783C50.8146 24.0783 49.8329 25.3702 49.8329 27.2682C49.8329 29.1837 50.8146 30.4664 52.2741 30.4664C53.7597 30.4664 54.7334 29.2103 54.7334 27.2682Z" fill="white"/>
<path d="M66.9395 27.2682C66.9395 30.2224 65.3917 32.1204 63.0559 32.1204C62.4641 32.152 61.8757 32.0128 61.3579 31.7186C60.84 31.4245 60.4137 30.9873 60.1278 30.4572H60.0836V35.1658H58.1734V22.5145H60.0224V24.0957H60.0575C60.3566 23.5681 60.7901 23.1332 61.3118 22.8373C61.8336 22.5413 62.4242 22.3954 63.0207 22.4151C65.3826 22.4151 66.9395 24.3223 66.9395 27.2682ZM64.9761 27.2682C64.9761 25.3436 64.0024 24.0783 62.5168 24.0783C61.0573 24.0783 60.0756 25.3702 60.0756 27.2682C60.0756 29.1837 61.0573 30.4664 62.5168 30.4664C64.0024 30.4664 64.9761 29.2103 64.9761 27.2682Z" fill="white"/>
<path d="M73.7089 28.3879C73.8504 29.681 75.0801 30.5299 76.7604 30.5299C78.3705 30.5299 79.5288 29.6809 79.5288 28.515C79.5288 27.503 78.8302 26.897 77.176 26.4817L75.5217 26.0746C73.1779 25.4963 72.0898 24.3766 72.0898 22.5596C72.0898 20.3099 74.009 18.7646 76.7343 18.7646C79.4315 18.7646 81.2805 20.3099 81.3427 22.5596H79.4144C79.299 21.2583 78.246 20.4729 76.7072 20.4729C75.1684 20.4729 74.1154 21.2676 74.1154 22.4242C74.1154 23.346 74.7879 23.8885 76.4331 24.3037L77.8394 24.6565C80.4583 25.2891 81.5464 26.3638 81.5464 28.271C81.5464 30.7104 79.6442 32.2382 76.6188 32.2382C73.7881 32.2382 71.8769 30.7462 71.7535 28.3878L73.7089 28.3879Z" fill="white"/>
<path d="M85.6689 20.2648V22.5145H87.4385V24.0598H85.6689V29.3005C85.6689 30.1147 86.0232 30.4941 86.8011 30.4941C87.0112 30.4904 87.221 30.4753 87.4295 30.4489V31.985C87.0797 32.0517 86.7243 32.082 86.3685 32.0752C84.4844 32.0752 83.7496 31.3523 83.7496 29.5087V24.0598H82.3965V22.5145H83.7496V20.2648H85.6689Z" fill="white"/>
<path d="M88.4635 27.2682C88.4635 24.2772 90.188 22.3976 92.8772 22.3976C95.5753 22.3976 97.2918 24.2771 97.2918 27.2682C97.2918 30.2675 95.5844 32.1388 92.8772 32.1388C90.1709 32.1388 88.4635 30.2675 88.4635 27.2682ZM95.3455 27.2682C95.3455 25.2164 94.425 24.0054 92.8772 24.0054C91.3293 24.0054 90.4098 25.2256 90.4098 27.2682C90.4098 29.3282 91.3293 30.53 92.8772 30.53C94.425 30.53 95.3455 29.3282 95.3455 27.2682Z" fill="white"/>
<path d="M98.8668 22.5145H100.689V24.1325H100.733C100.856 23.6272 101.146 23.1806 101.554 22.8678C101.961 22.555 102.462 22.3951 102.971 22.415C103.191 22.4142 103.411 22.4387 103.626 22.4878V24.313C103.348 24.2263 103.058 24.1864 102.767 24.1951C102.49 24.1836 102.213 24.2336 101.957 24.3416C101.7 24.4496 101.469 24.6132 101.28 24.821C101.091 25.0287 100.948 25.2759 100.861 25.5454C100.774 25.8149 100.746 26.1004 100.777 26.3823V32.0209H98.8668L98.8668 22.5145Z" fill="white"/>
<path d="M112.433 29.2288C112.176 30.9545 110.531 32.1388 108.426 32.1388C105.719 32.1388 104.038 30.2859 104.038 27.3133C104.038 24.3315 105.728 22.3976 108.345 22.3976C110.92 22.3976 112.539 24.2043 112.539 27.0867V27.7553H105.966V27.8732C105.936 28.2231 105.979 28.5755 106.092 28.9071C106.205 29.2388 106.387 29.542 106.623 29.7967C106.86 30.0513 107.147 30.2516 107.466 30.3843C107.784 30.5169 108.126 30.5788 108.47 30.5659C108.921 30.6091 109.374 30.5023 109.762 30.2614C110.149 30.0204 110.449 29.6583 110.619 29.2288L112.433 29.2288ZM105.975 26.3915H110.628C110.645 26.0769 110.598 25.7621 110.491 25.4669C110.383 25.1716 110.217 24.9022 110.003 24.6757C109.788 24.4491 109.531 24.2703 109.245 24.1503C108.96 24.0304 108.654 23.972 108.345 23.9788C108.034 23.9769 107.726 24.0379 107.438 24.1584C107.15 24.2789 106.889 24.4564 106.668 24.6807C106.448 24.905 106.273 25.1717 106.154 25.4653C106.035 25.759 105.975 26.0737 105.975 26.3915Z" fill="white"/>
<path d="M37.7624 11.8158H38.5825C38.7236 11.8337 38.8669 11.8216 39.0033 11.7802C39.1396 11.7388 39.2661 11.669 39.3748 11.5751C39.4834 11.4813 39.5719 11.3655 39.6345 11.235C39.6972 11.1045 39.7327 10.9622 39.7388 10.817C39.7388 10.2392 39.3132 9.86599 38.5915 9.86599C38.4469 9.84534 38.2996 9.85451 38.1585 9.89295C38.0174 9.93139 37.8853 9.99832 37.7699 10.0898C37.6545 10.1813 37.5583 10.2954 37.4868 10.4255C37.4154 10.5556 37.3701 10.699 37.3538 10.8473H36.4534C36.4689 10.5782 36.5385 10.3152 36.6578 10.0747C36.7771 9.83428 36.9435 9.62148 37.1468 9.44959C37.3501 9.2777 37.5859 9.1504 37.8394 9.07562C38.093 9.00084 38.3589 8.98017 38.6206 9.01491C39.8281 9.01491 40.6784 9.70551 40.6784 10.6996C40.6812 11.0327 40.5721 11.3566 40.3694 11.6174C40.1666 11.8782 39.8824 12.0601 39.5642 12.1326V12.2064C39.9414 12.2235 40.2967 12.3925 40.5523 12.6764C40.8079 12.9603 40.9431 13.336 40.9283 13.7215C40.9004 13.9985 40.8186 14.2671 40.6878 14.5115C40.5569 14.7559 40.3796 14.9711 40.1663 15.1446C39.9529 15.3181 39.7078 15.4463 39.4453 15.5218C39.1829 15.5973 38.9083 15.6184 38.6377 15.5841C38.3665 15.6218 38.0907 15.6035 37.8266 15.53C37.5626 15.4565 37.3157 15.3295 37.1007 15.1565C36.8857 14.9835 36.707 14.7681 36.5753 14.523C36.4436 14.278 36.3615 14.0083 36.334 13.7302H37.2484C37.3036 14.3295 37.8427 14.7161 38.6377 14.7161C39.4327 14.7161 39.9516 14.2819 39.9516 13.6697C39.9516 13.0488 39.4628 12.6664 38.6086 12.6664H37.7624V11.8158Z" fill="white"/>
<path d="M41.9671 14.0951C41.9671 13.2441 42.5884 12.7534 43.6886 12.6837L44.9423 12.6099V12.2018C44.9423 11.7024 44.6201 11.4204 43.9947 11.4204C43.4848 11.4204 43.1325 11.6116 43.0301 11.9459H42.1458C42.2391 11.1338 42.9879 10.6129 44.0379 10.6129C45.1983 10.6129 45.8528 11.203 45.8528 12.2018V15.4322H44.9724V14.7678H44.9002C44.7535 15.0061 44.5475 15.2004 44.3032 15.3309C44.059 15.4613 43.7852 15.5232 43.5099 15.5101C43.3156 15.5308 43.1192 15.5096 42.9334 15.448C42.7476 15.3864 42.5765 15.2856 42.4312 15.1523C42.2858 15.019 42.1694 14.856 42.0895 14.674C42.0095 14.4919 41.9679 14.2947 41.9671 14.0951ZM44.9423 13.6911V13.2958L43.812 13.3697C43.1746 13.4132 42.8855 13.6347 42.8855 14.0516C42.8855 14.4771 43.2469 14.7247 43.7438 14.7247C43.8894 14.7398 44.0365 14.7248 44.1763 14.6806C44.3161 14.6364 44.4457 14.5639 44.5576 14.4675C44.6694 14.371 44.7611 14.2526 44.8272 14.1192C44.8933 13.9859 44.9324 13.8403 44.9423 13.6911Z" fill="white"/>
<path d="M48.277 11.4896V15.4323H47.3635V10.7042H50.4111V11.4896L48.277 11.4896Z" fill="white"/>
<path d="M55.9471 13.0662C55.9471 14.5684 55.2033 15.5102 54.0349 15.5102C53.7481 15.5302 53.4616 15.4661 53.2093 15.3254C52.9569 15.1847 52.7492 14.9733 52.6105 14.716H52.5382V17.0042H51.6248V10.7042H52.5041V11.4856H52.5724C52.7135 11.2194 52.924 10.9982 53.1805 10.8464C53.437 10.6947 53.7295 10.6183 54.0258 10.6258C55.2033 10.6258 55.9471 11.5635 55.9471 13.0662ZM55.0075 13.0662C55.0075 12.0675 54.5448 11.464 53.7709 11.464C53.002 11.464 52.5212 12.0803 52.5212 13.0703C52.5212 14.0557 53.002 14.6725 53.7669 14.6725C54.5448 14.6725 55.0075 14.069 55.0075 13.0662Z" fill="white"/>
<path d="M57.1636 17.1257V16.3223C57.2624 16.3351 57.362 16.341 57.4617 16.3397C57.6563 16.3545 57.8493 16.2953 58.0038 16.1735C58.1584 16.0517 58.2634 15.8759 58.2988 15.6799L58.3671 15.4497L56.6918 10.7042H57.6865L58.8469 14.4597H58.9192L60.0756 10.7042H61.0442L59.3187 15.6276C58.9232 16.7781 58.4856 17.1472 57.542 17.1472C57.4657 17.1472 57.2489 17.1385 57.1636 17.1257Z" fill="white"/>
<path d="M61.7558 14.0905H62.6652C62.7546 14.5074 63.137 14.7247 63.672 14.7247C64.2803 14.7247 64.6537 14.4509 64.6537 14.0254C64.6537 13.5696 64.3185 13.3522 63.672 13.3522H62.9794V12.6273H63.66C64.2121 12.6273 64.4931 12.4104 64.4931 12.0151C64.4931 11.668 64.2211 11.403 63.66 11.403C63.1491 11.403 62.7757 11.6245 62.7164 11.9977H61.8361C61.9019 11.5688 62.1299 11.1835 62.471 10.9245C62.812 10.6655 63.239 10.5537 63.66 10.6129C64.7601 10.6129 65.3895 11.121 65.3895 11.9198C65.3946 12.1422 65.3249 12.3597 65.1919 12.5359C65.0589 12.7121 64.8707 12.8363 64.6588 12.8878V12.9616C64.911 12.9948 65.1426 13.1215 65.3095 13.3176C65.4764 13.5137 65.567 13.7656 65.5642 14.0254C65.5642 14.9242 64.8153 15.5189 63.672 15.5189C62.6612 15.5189 61.8401 15.0457 61.7558 14.0905Z" fill="white"/>
<path d="M66.8795 15.4323V10.7042H67.785V13.9562H67.8572L69.9903 10.7042H70.8957V15.4323H69.9903V12.1628H69.922L67.785 15.4323L66.8795 15.4323Z" fill="white"/>
<path d="M75.8837 11.4896H74.4262V15.4323H73.5118V11.4896H72.0542V10.7042H75.8837V11.4896Z" fill="white"/>
<path d="M80.8045 14.1558C80.68 14.5879 80.4109 14.9616 80.0441 15.2116C79.6774 15.4616 79.2363 15.5721 78.7979 15.5237C78.493 15.5319 78.1899 15.4722 77.9098 15.3488C77.6297 15.2254 77.3793 15.0412 77.1758 14.809C76.9724 14.5768 76.8209 14.3022 76.7318 14.0042C76.6427 13.7062 76.6181 13.3919 76.6598 13.0832C76.6192 12.7736 76.6442 12.4587 76.7331 12.1598C76.822 11.8609 76.9727 11.585 77.1751 11.3507C77.3774 11.1165 77.6267 10.9294 77.906 10.8022C78.1853 10.6749 78.4881 10.6104 78.7939 10.6131C80.0817 10.6131 80.8597 11.5119 80.8597 12.9966V13.3222H77.5913V13.3745C77.5769 13.548 77.5981 13.7227 77.6537 13.8874C77.7092 14.0521 77.7979 14.203 77.914 14.3306C78.0301 14.4582 78.171 14.5595 78.3277 14.6281C78.4845 14.6967 78.6535 14.7311 78.824 14.729C79.0423 14.7556 79.2635 14.7154 79.4594 14.6133C79.6553 14.5113 79.8171 14.352 79.9241 14.1558L80.8045 14.1558ZM77.5913 12.6321H79.9281C79.9397 12.4735 79.9186 12.3142 79.8663 12.1644C79.814 12.0146 79.7316 11.8776 79.6244 11.7623C79.5172 11.6469 79.3876 11.5557 79.2439 11.4946C79.1001 11.4335 78.9455 11.4037 78.7898 11.4073C78.6318 11.4051 78.475 11.4352 78.3285 11.496C78.1821 11.5568 78.0491 11.6469 77.9374 11.7611C77.8257 11.8753 77.7375 12.0112 77.678 12.1608C77.6186 12.3104 77.5891 12.4706 77.5913 12.6321Z" fill="white"/>
<path d="M84.677 10.7042H86.7638C87.6692 10.7042 88.2002 11.1728 88.2002 11.9064C88.2016 12.1392 88.1247 12.3655 87.9824 12.5473C87.8401 12.7291 87.6409 12.8554 87.4183 12.9052V12.979C87.6886 12.9964 87.942 13.1193 88.1262 13.3221C88.3104 13.525 88.4113 13.7923 88.408 14.069C88.408 14.8939 87.8007 15.4322 86.7849 15.4322H84.677V10.7042ZM85.5824 11.4204V12.6447H86.4878C87.0399 12.6447 87.3039 12.4279 87.3039 12.0279C87.3039 11.6593 87.074 11.4204 86.5892 11.4204L85.5824 11.4204ZM85.5824 13.3307V14.716H86.6655C87.2055 14.716 87.4946 14.4725 87.4946 14.0254C87.4946 13.5522 87.1674 13.3307 86.551 13.3307L85.5824 13.3307Z" fill="white"/>
</svg>
