<svg width="35" height="32" viewBox="0 0 35 32" fill="none" xmlns="http://www.w3.org/2000/svg">
<mask id="mask0_7_95" style="mask-type:alpha" maskUnits="userSpaceOnUse" x="0" y="0" width="35" height="32">
<rect width="35" height="32" fill="#D9D9D9"/>
</mask>
<g mask="url(#mask0_7_95)">
<path d="M10.2083 28V19.9C8.11805 19.5889 6.3802 18.6944 4.99478 17.2167C3.60936 15.7389 2.91666 14 2.91666 12C2.91666 9.77778 3.76735 7.88889 5.46874 6.33333C7.17013 4.77778 9.2361 4 11.6667 4C13.8542 4 15.7561 4.63333 17.3724 5.9C18.9887 7.16667 19.967 8.75556 20.3073 10.6667H26.5417L24.2083 8.53333L26.25 6.66667L32.0833 12L26.25 17.3333L24.2083 15.4667L26.5417 13.3333H20.2708C19.566 13.3333 18.9462 13.1222 18.4114 12.7C17.8767 12.2778 17.5486 11.7444 17.4271 11.1C17.2083 9.83333 16.5581 8.77778 15.4766 7.93333C14.395 7.08889 13.125 6.66667 11.6667 6.66667C10.0625 6.66667 8.68923 7.18889 7.54686 8.23333C6.4045 9.27778 5.83332 10.5333 5.83332 12C5.83332 13.3333 6.29513 14.4944 7.21874 15.4833C8.14235 16.4722 9.29686 17.0667 10.6823 17.2667C11.3871 17.3778 11.9705 17.6778 12.4323 18.1667C12.8941 18.6556 13.125 19.2222 13.125 19.8667V28H10.2083Z" fill="#A63268"/>
</g>
</svg>
