<svg width="38" height="37" viewBox="0 0 38 37" fill="none" xmlns="http://www.w3.org/2000/svg">
<mask id="mask0_7_77" style="mask-type:alpha" maskUnits="userSpaceOnUse" x="0" y="0" width="38" height="37">
<rect width="37.2953" height="36.4094" fill="#D9D9D9"/>
</mask>
<g mask="url(#mask0_7_77)">
<path d="M3.10794 10.6194V3.03412H10.8778V6.06824H6.21588V10.6194H3.10794ZM3.10794 33.3753V25.79H6.21588V30.3412H10.8778V33.3753H3.10794ZM26.4175 33.3753V30.3412H31.0794V25.79H34.1873V33.3753H26.4175ZM31.0794 10.6194V6.06824H26.4175V3.03412H34.1873V10.6194H31.0794ZM27.1945 26.5485H29.5254V28.8241H27.1945V26.5485ZM27.1945 21.9974H29.5254V24.2729H27.1945V21.9974ZM24.8635 24.2729H27.1945V26.5485H24.8635V24.2729ZM22.5326 26.5485H24.8635V28.8241H22.5326V26.5485ZM20.2016 24.2729H22.5326V26.5485H20.2016V24.2729ZM24.8635 19.7218H27.1945V21.9974H24.8635V19.7218ZM22.5326 21.9974H24.8635V24.2729H22.5326V21.9974ZM20.2016 19.7218H22.5326V21.9974H20.2016V19.7218ZM29.5254 7.5853V16.6877H20.2016V7.5853H29.5254ZM17.0937 19.7218V28.8241H7.76985V19.7218H17.0937ZM17.0937 7.5853V16.6877H7.76985V7.5853H17.0937ZM14.7627 26.5485V21.9974H10.1008V26.5485H14.7627ZM14.7627 14.4121V9.86089H10.1008V14.4121H14.7627ZM27.1945 14.4121V9.86089H22.5326V14.4121H27.1945Z" fill="#A63268"/>
</g>
</svg>
