<svg width="37" height="33" viewBox="0 0 37 33" fill="none" xmlns="http://www.w3.org/2000/svg">
<mask id="mask0_7_83" style="mask-type:alpha" maskUnits="userSpaceOnUse" x="0" y="0" width="37" height="33">
<rect width="37" height="33" fill="#D9D9D9"/>
</mask>
<g mask="url(#mask0_7_83)">
<path d="M23.5104 6.875C22.9708 6.875 22.5148 6.70885 22.1422 6.37656C21.7696 6.04427 21.5833 5.6375 21.5833 5.15625C21.5833 4.675 21.7696 4.26823 22.1422 3.93594C22.5148 3.60365 22.9708 3.4375 23.5104 3.4375C24.05 3.4375 24.5061 3.60365 24.8787 3.93594C25.2512 4.26823 25.4375 4.675 25.4375 5.15625C25.4375 5.6375 25.2512 6.04427 24.8787 6.37656C24.5061 6.70885 24.05 6.875 23.5104 6.875ZM23.5104 29.5625C22.9708 29.5625 22.5148 29.3964 22.1422 29.0641C21.7696 28.7318 21.5833 28.325 21.5833 27.8438C21.5833 27.3625 21.7696 26.9557 22.1422 26.6234C22.5148 26.2911 22.9708 26.125 23.5104 26.125C24.05 26.125 24.5061 26.2911 24.8787 26.6234C25.2512 26.9557 25.4375 27.3625 25.4375 27.8438C25.4375 28.325 25.2512 28.7318 24.8787 29.0641C24.5061 29.3964 24.05 29.5625 23.5104 29.5625ZM29.6771 11.6875C29.1375 11.6875 28.6814 11.5214 28.3089 11.1891C27.9363 10.8568 27.75 10.45 27.75 9.96875C27.75 9.4875 27.9363 9.08073 28.3089 8.74844C28.6814 8.41615 29.1375 8.25 29.6771 8.25C30.2167 8.25 30.6728 8.41615 31.0453 8.74844C31.4179 9.08073 31.6042 9.4875 31.6042 9.96875C31.6042 10.45 31.4179 10.8568 31.0453 11.1891C30.6728 11.5214 30.2167 11.6875 29.6771 11.6875ZM29.6771 24.75C29.1375 24.75 28.6814 24.5839 28.3089 24.2516C27.9363 23.9193 27.75 23.5125 27.75 23.0312C27.75 22.55 27.9363 22.1432 28.3089 21.8109C28.6814 21.4786 29.1375 21.3125 29.6771 21.3125C30.2167 21.3125 30.6728 21.4786 31.0453 21.8109C31.4179 22.1432 31.6042 22.55 31.6042 23.0312C31.6042 23.5125 31.4179 23.9193 31.0453 24.2516C30.6728 24.5839 30.2167 24.75 29.6771 24.75ZM31.9896 18.2188C31.45 18.2188 30.9939 18.0526 30.6214 17.7203C30.2488 17.388 30.0625 16.9812 30.0625 16.5C30.0625 16.0188 30.2488 15.612 30.6214 15.2797C30.9939 14.9474 31.45 14.7812 31.9896 14.7812C32.5292 14.7812 32.9853 14.9474 33.3578 15.2797C33.7304 15.612 33.9167 16.0188 33.9167 16.5C33.9167 16.9812 33.7304 17.388 33.3578 17.7203C32.9853 18.0526 32.5292 18.2188 31.9896 18.2188ZM18.5 30.25C16.3674 30.25 14.3632 29.8891 12.4875 29.1672C10.6118 28.4453 8.98022 27.4656 7.59272 26.2281C6.20522 24.9906 5.10678 23.5354 4.29741 21.8625C3.48803 20.1896 3.08334 18.4021 3.08334 16.5C3.08334 14.5979 3.48803 12.8104 4.29741 11.1375C5.10678 9.46458 6.20522 8.00938 7.59272 6.77187C8.98022 5.53437 10.6118 4.55469 12.4875 3.83281C14.3632 3.11094 16.3674 2.75 18.5 2.75V5.5C15.057 5.5 12.1406 6.56563 9.75105 8.69688C7.36147 10.8281 6.16668 13.4292 6.16668 16.5C6.16668 19.5708 7.36147 22.1719 9.75105 24.3031C12.1406 26.4344 15.057 27.5 18.5 27.5V30.25ZM18.5 19.25C17.6521 19.25 16.9262 18.9807 16.3224 18.4422C15.7186 17.9036 15.4167 17.2563 15.4167 16.5C15.4167 16.3854 15.4231 16.2651 15.4359 16.1391C15.4488 16.013 15.4809 15.8927 15.5323 15.7781L12.3333 12.925L14.4917 11L17.6906 13.8531C17.7934 13.8302 18.0632 13.7958 18.5 13.75C19.3479 13.75 20.0738 14.0193 20.6776 14.5578C21.2814 15.0964 21.5833 15.7437 21.5833 16.5C21.5833 17.2563 21.2814 17.9036 20.6776 18.4422C20.0738 18.9807 19.3479 19.25 18.5 19.25Z" fill="#A63268"/>
</g>
</svg>
