<svg width="45" height="38" viewBox="0 0 45 38" fill="none" xmlns="http://www.w3.org/2000/svg">
<mask id="mask0_7_71" style="mask-type:alpha" maskUnits="userSpaceOnUse" x="0" y="0" width="45" height="38">
<rect width="44.7047" height="38" fill="#D9D9D9"/>
</mask>
<g mask="url(#mask0_7_71)">
<path d="M22.3524 34.8333C19.0616 34.8333 16.3762 34.3913 14.2962 33.5073C12.2162 32.6232 11.1762 31.4819 11.1762 30.0833C11.1762 29.1597 11.6263 28.3548 12.5266 27.6687C13.4269 26.9826 14.6687 26.4416 16.252 26.0458L17.3231 29.0541C16.7953 29.1861 16.3141 29.351 15.8795 29.5489C15.4449 29.7468 15.1499 29.925 14.9947 30.0833C15.3983 30.5055 16.3296 30.875 17.7887 31.1916C19.2479 31.5083 20.7691 31.6666 22.3524 31.6666C23.9356 31.6666 25.4646 31.5083 26.9392 31.1916C28.4139 30.875 29.353 30.5055 29.7566 30.0833C29.6013 29.925 29.3064 29.7468 28.8718 29.5489C28.4372 29.351 27.956 29.1861 27.4282 29.0541L28.4993 26.0458C30.0825 26.4416 31.3166 26.9826 32.2014 27.6687C33.0861 28.3548 33.5285 29.1597 33.5285 30.0833C33.5285 31.4819 32.4885 32.6232 30.4085 33.5073C28.3285 34.3913 25.6431 34.8333 22.3524 34.8333ZM22.3524 24.2645C22.9112 23.3937 23.501 22.5954 24.1219 21.8698C24.7428 21.1441 25.3482 20.4513 25.938 19.7916C27.0867 18.525 28.0025 17.3836 28.6855 16.3677C29.3685 15.3517 29.71 14.0916 29.71 12.5875C29.71 10.8458 28.996 9.36802 27.5679 8.15413C26.1398 6.94024 24.4013 6.33329 22.3524 6.33329C20.3034 6.33329 18.5649 6.94024 17.1368 8.15413C15.7087 9.36802 14.9947 10.8458 14.9947 12.5875C14.9947 14.0916 15.3362 15.3517 16.0192 16.3677C16.7022 17.3836 17.618 18.525 18.7667 19.7916C19.3565 20.4513 19.9619 21.1441 20.5828 21.8698C21.2037 22.5954 21.7935 23.3937 22.3524 24.2645ZM22.3524 30.0833C22.0109 30.0833 21.7004 29.9975 21.421 29.826C21.1416 29.6545 20.9398 29.4236 20.8156 29.1333C20.1016 27.2597 19.2013 25.6895 18.1147 24.4229C17.0281 23.1562 15.9726 21.9423 14.9481 20.7812C13.9547 19.6201 13.0932 18.4194 12.3636 17.1791C11.6341 15.9388 11.2693 14.4083 11.2693 12.5875C11.2693 9.94857 12.3404 7.71871 14.4825 5.89788C16.6246 4.07704 19.2479 3.16663 22.3524 3.16663C25.4568 3.16663 28.0801 4.07704 30.2222 5.89788C32.3643 7.71871 33.4354 9.94857 33.4354 12.5875C33.4354 14.4083 33.0784 15.9388 32.3643 17.1791C31.6503 18.4194 30.7811 19.6201 29.7566 20.7812C28.7631 21.9423 27.7154 23.1562 26.6133 24.4229C25.5112 25.6895 24.6031 27.2597 23.8891 29.1333C23.7649 29.4236 23.5631 29.6545 23.2837 29.826C23.0043 29.9975 22.6939 30.0833 22.3524 30.0833ZM22.3524 15.952C23.4389 15.952 24.3703 15.6222 25.1464 14.9625C25.9225 14.3027 26.3106 13.5111 26.3106 12.5875C26.3106 11.6638 25.9225 10.8722 25.1464 10.2125C24.3703 9.55274 23.4389 9.22288 22.3524 9.22288C21.2658 9.22288 20.3344 9.55274 19.5583 10.2125C18.7822 10.8722 18.3941 11.6638 18.3941 12.5875C18.3941 13.5111 18.7822 14.3027 19.5583 14.9625C20.3344 15.6222 21.2658 15.952 22.3524 15.952Z" fill="#A63268"/>
</g>
</svg>
