<svg width="43" height="36" viewBox="0 0 43 36" fill="none" xmlns="http://www.w3.org/2000/svg">
<mask id="mask0_79_77" style="mask-type:alpha" maskUnits="userSpaceOnUse" x="0" y="0" width="43" height="36">
<rect width="43" height="36" fill="#D9D9D9"/>
</mask>
<g mask="url(#mask0_79_77)">
<path d="M21.5001 31.5C20.5147 31.5 19.6711 31.2063 18.9694 30.6188C18.2676 30.0313 17.9167 29.325 17.9167 28.5C17.9167 27.675 18.2676 26.9688 18.9694 26.3813C19.6711 25.7938 20.5147 25.5 21.5001 25.5C22.4855 25.5 23.3291 25.7938 24.0308 26.3813C24.7325 26.9688 25.0834 27.675 25.0834 28.5C25.0834 29.325 24.7325 30.0313 24.0308 30.6188C23.3291 31.2063 22.4855 31.5 21.5001 31.5ZM17.9167 22.5V4.5H25.0834V22.5H17.9167Z" fill="#FF0000"/>
</g>
</svg>
